<svg width="220" height="220" viewBox="0 0 220 220" fill="none" xmlns="http://www.w3.org/2000/svg">
<circle cx="110" cy="110" r="110" fill="#FFF5F5"/>
<g style="mix-blend-mode:darken" filter="url(#filter0_d_3_12)">
<mask id="path-2-outside-1_3_12" maskUnits="userSpaceOnUse" x="32" y="41" width="157" height="137" fill="black">
<rect fill="white" x="32" y="41" width="157" height="137"/>
<path d="M159.303 45.2128C156.233 47.2345 153.352 49.7205 150.661 52.6709C153.588 54.1462 156.28 55.9766 158.736 58.1621C161.239 60.3476 163.388 62.8883 165.182 65.7841C167.024 68.6799 168.441 71.9582 169.432 75.619C170.471 79.2251 170.991 83.2137 170.991 87.5847C170.991 91.3001 170.424 94.8243 169.291 98.1572C168.205 101.435 166.67 104.413 164.686 107.091C162.75 109.713 160.412 111.953 157.673 113.811C154.982 115.614 152.03 116.871 148.819 117.581C150.377 120.04 151.629 122.772 152.573 125.777C153.565 128.727 154.061 131.951 154.061 135.448C154.061 136.868 153.895 138.562 153.565 140.529C153.234 142.441 152.809 144.463 152.29 146.594C151.818 148.725 151.274 150.883 150.661 153.069C150.094 155.199 149.551 157.194 149.031 159.051C148.559 160.909 148.158 162.548 147.827 163.969C147.496 165.389 147.331 166.428 147.331 167.083C147.331 168.668 147.709 169.897 148.465 170.771C149.267 171.7 150.354 172.165 151.723 172.165C154.226 172.165 156.587 171.536 158.807 170.28C161.026 169.077 163.104 167.438 165.04 165.362C167.024 163.34 168.889 160.991 170.637 158.314C172.384 155.582 174.037 152.741 175.595 149.79C177.201 146.84 178.712 143.889 180.129 140.939C181.593 137.934 183.01 135.093 184.379 132.415L187 134.71C184.025 140.83 181.215 146.457 178.57 151.593C175.973 156.675 173.305 161.046 170.566 164.706C167.827 168.422 164.922 171.318 161.853 173.394C158.783 175.47 155.289 176.508 151.369 176.508C147.733 176.508 144.899 175.334 142.868 172.984C140.885 170.689 139.893 167.411 139.893 163.149C139.893 160.199 140.271 157.385 141.027 154.708C141.782 152.03 142.609 149.408 143.506 146.84C144.45 144.272 145.301 141.704 146.056 139.136C146.812 136.568 147.19 133.891 147.19 131.104C147.19 128.645 146.835 126.35 146.127 124.22C145.466 122.089 144.521 120.067 143.293 118.155C141.83 118.155 140.153 118.073 138.264 117.909C136.422 117.745 134.651 117.417 132.951 116.925C131.298 116.434 129.905 115.723 128.772 114.794C127.638 113.866 127.072 112.636 127.072 111.106C127.072 109.74 127.544 108.648 128.489 107.828C129.433 106.954 130.826 106.517 132.668 106.517C134.793 106.517 136.847 107.091 138.831 108.238C140.814 109.331 142.774 110.779 144.71 112.582C147.449 111.871 149.999 110.587 152.361 108.73C154.722 106.872 156.753 104.659 158.453 102.091C160.2 99.4685 161.546 96.5727 162.49 93.4037C163.482 90.2347 163.978 86.9837 163.978 83.6508C163.978 80.2086 163.577 77.0669 162.774 74.2257C161.971 71.3299 160.837 68.7346 159.374 66.4398C157.91 64.145 156.186 62.1507 154.202 60.4569C152.219 58.7085 150.047 57.2606 147.685 56.1132C144.096 60.6481 140.814 65.8661 137.839 71.767C134.864 77.6133 132.007 83.8147 129.268 90.3713C126.576 96.8732 123.955 103.539 121.405 110.369C118.855 117.144 116.186 123.755 113.4 130.202C110.661 136.595 107.71 142.633 104.546 148.315C101.429 153.997 97.9577 158.969 94.1325 163.231C90.3545 167.493 86.1279 170.853 81.4526 173.312C76.8246 175.771 71.6063 177 65.7976 177C61.264 177 57.0138 176.18 53.0469 174.541C49.08 172.902 45.609 170.471 42.6339 167.247C39.6587 164.078 37.2975 160.144 35.5501 155.445C33.85 150.746 33 145.337 33 139.218C33 135.502 33.3778 131.35 34.1334 126.76C34.9362 122.171 36.1877 117.39 37.8878 112.418C39.5879 107.391 41.7602 102.337 44.4048 97.2557C47.0966 92.1197 50.3079 87.1476 54.0386 82.3394C57.8166 77.5313 62.1613 73.0237 67.0727 68.8165C72.0313 64.6094 77.6038 60.9486 83.7902 57.8343C90.0239 54.6652 96.9187 52.1792 104.475 50.3761C112.031 48.5731 120.319 47.6716 129.339 47.6716C132.408 47.6716 135.454 47.9721 138.477 48.5731C141.499 49.1195 144.427 49.939 147.26 51.0318C148.913 49.5566 150.637 48.1633 152.431 46.852C154.226 45.486 156.115 44.202 158.098 43L159.303 45.2128ZM64.0267 172.656C69.127 172.656 73.6605 171.482 77.6274 169.132C81.5943 166.783 85.1834 163.614 88.3947 159.625C91.6059 155.582 94.5339 150.856 97.1785 145.446C99.8703 139.983 102.468 134.191 104.971 128.072C107.521 121.897 110.071 115.505 112.621 108.894C115.218 102.228 118.028 95.6712 121.051 89.2239C124.073 82.7766 127.426 76.5751 131.109 70.6196C134.793 64.664 139.02 59.2548 143.789 54.392C139.445 52.9168 134.887 52.1792 130.118 52.1792C121.334 52.1792 112.975 53.5452 105.041 56.2771C97.1549 59.009 89.8114 62.697 83.011 67.3413C76.2579 71.9855 70.1423 77.3674 64.6642 83.4869C59.2334 89.6063 54.5817 96.0536 50.7093 102.829C46.8841 109.549 43.9325 116.434 41.8546 123.482C39.7768 130.476 38.7378 137.169 38.7378 143.561C38.7378 147.55 39.3281 151.32 40.5087 154.872C41.7366 158.423 43.4603 161.51 45.6799 164.133C47.8994 166.755 50.5676 168.832 53.6845 170.361C56.8013 171.891 60.2487 172.656 64.0267 172.656ZM139.681 113.647C138.5 112.718 137.249 111.926 135.926 111.27C134.604 110.615 133.447 110.287 132.455 110.287C131.794 110.287 131.346 110.396 131.109 110.615C130.873 110.833 130.755 111.079 130.755 111.352C130.755 111.844 131.062 112.254 131.676 112.582C132.29 112.855 133.046 113.101 133.943 113.319C134.887 113.483 135.856 113.592 136.847 113.647C137.886 113.702 138.831 113.702 139.681 113.647Z"/>
</mask>
<path d="M159.303 45.2128C156.233 47.2345 153.352 49.7205 150.661 52.6709C153.588 54.1462 156.28 55.9766 158.736 58.1621C161.239 60.3476 163.388 62.8883 165.182 65.7841C167.024 68.6799 168.441 71.9582 169.432 75.619C170.471 79.2251 170.991 83.2137 170.991 87.5847C170.991 91.3001 170.424 94.8243 169.291 98.1572C168.205 101.435 166.67 104.413 164.686 107.091C162.75 109.713 160.412 111.953 157.673 113.811C154.982 115.614 152.03 116.871 148.819 117.581C150.377 120.04 151.629 122.772 152.573 125.777C153.565 128.727 154.061 131.951 154.061 135.448C154.061 136.868 153.895 138.562 153.565 140.529C153.234 142.441 152.809 144.463 152.29 146.594C151.818 148.725 151.274 150.883 150.661 153.069C150.094 155.199 149.551 157.194 149.031 159.051C148.559 160.909 148.158 162.548 147.827 163.969C147.496 165.389 147.331 166.428 147.331 167.083C147.331 168.668 147.709 169.897 148.465 170.771C149.267 171.7 150.354 172.165 151.723 172.165C154.226 172.165 156.587 171.536 158.807 170.28C161.026 169.077 163.104 167.438 165.04 165.362C167.024 163.34 168.889 160.991 170.637 158.314C172.384 155.582 174.037 152.741 175.595 149.79C177.201 146.84 178.712 143.889 180.129 140.939C181.593 137.934 183.01 135.093 184.379 132.415L187 134.71C184.025 140.83 181.215 146.457 178.57 151.593C175.973 156.675 173.305 161.046 170.566 164.706C167.827 168.422 164.922 171.318 161.853 173.394C158.783 175.47 155.289 176.508 151.369 176.508C147.733 176.508 144.899 175.334 142.868 172.984C140.885 170.689 139.893 167.411 139.893 163.149C139.893 160.199 140.271 157.385 141.027 154.708C141.782 152.03 142.609 149.408 143.506 146.84C144.45 144.272 145.301 141.704 146.056 139.136C146.812 136.568 147.19 133.891 147.19 131.104C147.19 128.645 146.835 126.35 146.127 124.22C145.466 122.089 144.521 120.067 143.293 118.155C141.83 118.155 140.153 118.073 138.264 117.909C136.422 117.745 134.651 117.417 132.951 116.925C131.298 116.434 129.905 115.723 128.772 114.794C127.638 113.866 127.072 112.636 127.072 111.106C127.072 109.74 127.544 108.648 128.489 107.828C129.433 106.954 130.826 106.517 132.668 106.517C134.793 106.517 136.847 107.091 138.831 108.238C140.814 109.331 142.774 110.779 144.71 112.582C147.449 111.871 149.999 110.587 152.361 108.73C154.722 106.872 156.753 104.659 158.453 102.091C160.2 99.4685 161.546 96.5727 162.49 93.4037C163.482 90.2347 163.978 86.9837 163.978 83.6508C163.978 80.2086 163.577 77.0669 162.774 74.2257C161.971 71.3299 160.837 68.7346 159.374 66.4398C157.91 64.145 156.186 62.1507 154.202 60.4569C152.219 58.7085 150.047 57.2606 147.685 56.1132C144.096 60.6481 140.814 65.8661 137.839 71.767C134.864 77.6133 132.007 83.8147 129.268 90.3713C126.576 96.8732 123.955 103.539 121.405 110.369C118.855 117.144 116.186 123.755 113.4 130.202C110.661 136.595 107.71 142.633 104.546 148.315C101.429 153.997 97.9577 158.969 94.1325 163.231C90.3545 167.493 86.1279 170.853 81.4526 173.312C76.8246 175.771 71.6063 177 65.7976 177C61.264 177 57.0138 176.18 53.0469 174.541C49.08 172.902 45.609 170.471 42.6339 167.247C39.6587 164.078 37.2975 160.144 35.5501 155.445C33.85 150.746 33 145.337 33 139.218C33 135.502 33.3778 131.35 34.1334 126.76C34.9362 122.171 36.1877 117.39 37.8878 112.418C39.5879 107.391 41.7602 102.337 44.4048 97.2557C47.0966 92.1197 50.3079 87.1476 54.0386 82.3394C57.8166 77.5313 62.1613 73.0237 67.0727 68.8165C72.0313 64.6094 77.6038 60.9486 83.7902 57.8343C90.0239 54.6652 96.9187 52.1792 104.475 50.3761C112.031 48.5731 120.319 47.6716 129.339 47.6716C132.408 47.6716 135.454 47.9721 138.477 48.5731C141.499 49.1195 144.427 49.939 147.26 51.0318C148.913 49.5566 150.637 48.1633 152.431 46.852C154.226 45.486 156.115 44.202 158.098 43L159.303 45.2128ZM64.0267 172.656C69.127 172.656 73.6605 171.482 77.6274 169.132C81.5943 166.783 85.1834 163.614 88.3947 159.625C91.6059 155.582 94.5339 150.856 97.1785 145.446C99.8703 139.983 102.468 134.191 104.971 128.072C107.521 121.897 110.071 115.505 112.621 108.894C115.218 102.228 118.028 95.6712 121.051 89.2239C124.073 82.7766 127.426 76.5751 131.109 70.6196C134.793 64.664 139.02 59.2548 143.789 54.392C139.445 52.9168 134.887 52.1792 130.118 52.1792C121.334 52.1792 112.975 53.5452 105.041 56.2771C97.1549 59.009 89.8114 62.697 83.011 67.3413C76.2579 71.9855 70.1423 77.3674 64.6642 83.4869C59.2334 89.6063 54.5817 96.0536 50.7093 102.829C46.8841 109.549 43.9325 116.434 41.8546 123.482C39.7768 130.476 38.7378 137.169 38.7378 143.561C38.7378 147.55 39.3281 151.32 40.5087 154.872C41.7366 158.423 43.4603 161.51 45.6799 164.133C47.8994 166.755 50.5676 168.832 53.6845 170.361C56.8013 171.891 60.2487 172.656 64.0267 172.656ZM139.681 113.647C138.5 112.718 137.249 111.926 135.926 111.27C134.604 110.615 133.447 110.287 132.455 110.287C131.794 110.287 131.346 110.396 131.109 110.615C130.873 110.833 130.755 111.079 130.755 111.352C130.755 111.844 131.062 112.254 131.676 112.582C132.29 112.855 133.046 113.101 133.943 113.319C134.887 113.483 135.856 113.592 136.847 113.647C137.886 113.702 138.831 113.702 139.681 113.647Z" fill="#F9431B"/>
<path d="M159.303 45.2128C156.233 47.2345 153.352 49.7205 150.661 52.6709C153.588 54.1462 156.28 55.9766 158.736 58.1621C161.239 60.3476 163.388 62.8883 165.182 65.7841C167.024 68.6799 168.441 71.9582 169.432 75.619C170.471 79.2251 170.991 83.2137 170.991 87.5847C170.991 91.3001 170.424 94.8243 169.291 98.1572C168.205 101.435 166.67 104.413 164.686 107.091C162.75 109.713 160.412 111.953 157.673 113.811C154.982 115.614 152.03 116.871 148.819 117.581C150.377 120.04 151.629 122.772 152.573 125.777C153.565 128.727 154.061 131.951 154.061 135.448C154.061 136.868 153.895 138.562 153.565 140.529C153.234 142.441 152.809 144.463 152.29 146.594C151.818 148.725 151.274 150.883 150.661 153.069C150.094 155.199 149.551 157.194 149.031 159.051C148.559 160.909 148.158 162.548 147.827 163.969C147.496 165.389 147.331 166.428 147.331 167.083C147.331 168.668 147.709 169.897 148.465 170.771C149.267 171.7 150.354 172.165 151.723 172.165C154.226 172.165 156.587 171.536 158.807 170.28C161.026 169.077 163.104 167.438 165.04 165.362C167.024 163.34 168.889 160.991 170.637 158.314C172.384 155.582 174.037 152.741 175.595 149.79C177.201 146.84 178.712 143.889 180.129 140.939C181.593 137.934 183.01 135.093 184.379 132.415L187 134.71C184.025 140.83 181.215 146.457 178.57 151.593C175.973 156.675 173.305 161.046 170.566 164.706C167.827 168.422 164.922 171.318 161.853 173.394C158.783 175.47 155.289 176.508 151.369 176.508C147.733 176.508 144.899 175.334 142.868 172.984C140.885 170.689 139.893 167.411 139.893 163.149C139.893 160.199 140.271 157.385 141.027 154.708C141.782 152.03 142.609 149.408 143.506 146.84C144.45 144.272 145.301 141.704 146.056 139.136C146.812 136.568 147.19 133.891 147.19 131.104C147.19 128.645 146.835 126.35 146.127 124.22C145.466 122.089 144.521 120.067 143.293 118.155C141.83 118.155 140.153 118.073 138.264 117.909C136.422 117.745 134.651 117.417 132.951 116.925C131.298 116.434 129.905 115.723 128.772 114.794C127.638 113.866 127.072 112.636 127.072 111.106C127.072 109.74 127.544 108.648 128.489 107.828C129.433 106.954 130.826 106.517 132.668 106.517C134.793 106.517 136.847 107.091 138.831 108.238C140.814 109.331 142.774 110.779 144.71 112.582C147.449 111.871 149.999 110.587 152.361 108.73C154.722 106.872 156.753 104.659 158.453 102.091C160.2 99.4685 161.546 96.5727 162.49 93.4037C163.482 90.2347 163.978 86.9837 163.978 83.6508C163.978 80.2086 163.577 77.0669 162.774 74.2257C161.971 71.3299 160.837 68.7346 159.374 66.4398C157.91 64.145 156.186 62.1507 154.202 60.4569C152.219 58.7085 150.047 57.2606 147.685 56.1132C144.096 60.6481 140.814 65.8661 137.839 71.767C134.864 77.6133 132.007 83.8147 129.268 90.3713C126.576 96.8732 123.955 103.539 121.405 110.369C118.855 117.144 116.186 123.755 113.4 130.202C110.661 136.595 107.71 142.633 104.546 148.315C101.429 153.997 97.9577 158.969 94.1325 163.231C90.3545 167.493 86.1279 170.853 81.4526 173.312C76.8246 175.771 71.6063 177 65.7976 177C61.264 177 57.0138 176.18 53.0469 174.541C49.08 172.902 45.609 170.471 42.6339 167.247C39.6587 164.078 37.2975 160.144 35.5501 155.445C33.85 150.746 33 145.337 33 139.218C33 135.502 33.3778 131.35 34.1334 126.76C34.9362 122.171 36.1877 117.39 37.8878 112.418C39.5879 107.391 41.7602 102.337 44.4048 97.2557C47.0966 92.1197 50.3079 87.1476 54.0386 82.3394C57.8166 77.5313 62.1613 73.0237 67.0727 68.8165C72.0313 64.6094 77.6038 60.9486 83.7902 57.8343C90.0239 54.6652 96.9187 52.1792 104.475 50.3761C112.031 48.5731 120.319 47.6716 129.339 47.6716C132.408 47.6716 135.454 47.9721 138.477 48.5731C141.499 49.1195 144.427 49.939 147.26 51.0318C148.913 49.5566 150.637 48.1633 152.431 46.852C154.226 45.486 156.115 44.202 158.098 43L159.303 45.2128ZM64.0267 172.656C69.127 172.656 73.6605 171.482 77.6274 169.132C81.5943 166.783 85.1834 163.614 88.3947 159.625C91.6059 155.582 94.5339 150.856 97.1785 145.446C99.8703 139.983 102.468 134.191 104.971 128.072C107.521 121.897 110.071 115.505 112.621 108.894C115.218 102.228 118.028 95.6712 121.051 89.2239C124.073 82.7766 127.426 76.5751 131.109 70.6196C134.793 64.664 139.02 59.2548 143.789 54.392C139.445 52.9168 134.887 52.1792 130.118 52.1792C121.334 52.1792 112.975 53.5452 105.041 56.2771C97.1549 59.009 89.8114 62.697 83.011 67.3413C76.2579 71.9855 70.1423 77.3674 64.6642 83.4869C59.2334 89.6063 54.5817 96.0536 50.7093 102.829C46.8841 109.549 43.9325 116.434 41.8546 123.482C39.7768 130.476 38.7378 137.169 38.7378 143.561C38.7378 147.55 39.3281 151.32 40.5087 154.872C41.7366 158.423 43.4603 161.51 45.6799 164.133C47.8994 166.755 50.5676 168.832 53.6845 170.361C56.8013 171.891 60.2487 172.656 64.0267 172.656ZM139.681 113.647C138.5 112.718 137.249 111.926 135.926 111.27C134.604 110.615 133.447 110.287 132.455 110.287C131.794 110.287 131.346 110.396 131.109 110.615C130.873 110.833 130.755 111.079 130.755 111.352C130.755 111.844 131.062 112.254 131.676 112.582C132.29 112.855 133.046 113.101 133.943 113.319C134.887 113.483 135.856 113.592 136.847 113.647C137.886 113.702 138.831 113.702 139.681 113.647Z" stroke="#CF331E" stroke-width="2" mask="url(#path-2-outside-1_3_12)"/>
</g>
<defs>
<filter id="filter0_d_3_12" x="28" y="41.6019" width="164.233" height="144.398" filterUnits="userSpaceOnUse" color-interpolation-filters="sRGB">
<feFlood flood-opacity="0" result="BackgroundImageFix"/>
<feColorMatrix in="SourceAlpha" type="matrix" values="0 0 0 0 0 0 0 0 0 0 0 0 0 0 0 0 0 0 127 0" result="hardAlpha"/>
<feOffset dy="4"/>
<feGaussianBlur stdDeviation="2"/>
<feComposite in2="hardAlpha" operator="out"/>
<feColorMatrix type="matrix" values="0 0 0 0 0 0 0 0 0 0 0 0 0 0 0 0 0 0 0.25 0"/>
<feBlend mode="normal" in2="BackgroundImageFix" result="effect1_dropShadow_3_12"/>
<feBlend mode="normal" in="SourceGraphic" in2="effect1_dropShadow_3_12" result="shape"/>
</filter>
</defs>
</svg>
